<svg width="690.209375px" height="336.8px" xmlns="http://www.w3.org/2000/svg" viewBox="-95.10468750000001 -93.4 690.209375 336.8" style="background: rgba(0, 0, 0, 0);" preserveAspectRatio="xMidYMid"><defs><filter id="editing-vr"><feFlood flood-color="#ff0000" flood-opacity="0.7" result="c1"></feFlood><feFlood flood-color="#0000ff" flood-opacity="0.7" result="c3"></feFlood><feComposite operator="in" in="c1" in2="SourceAlpha" result="text-c1"></feComposite><feComposite operator="in" in="c3" in2="SourceAlpha" result="text-c3"></feComposite><feOffset in="text-c1" dx="8" dy="-1" result="text1"></feOffset><feOffset in="text-c3" dx="-8" dy="1" result="text3"></feOffset><feBlend in="SourceGraphic" in2="text1" mode="multiply" result="text4"></feBlend><feBlend in="text4" in2="text3" mode="multiply"></feBlend></filter></defs><g filter="url(#editing-vr)"><g transform="translate(5.699998378753662, 149)"><path d="M12.10-6L12.10-6L12.10-6Q7.40-11.20 5.30-19.40L5.30-19.40L5.30-19.40Q3.20-27.60 3.20-41L3.20-41L3.20-41Q3.20-54.40 7.80-66.60L7.80-66.60L7.80-66.60Q12.40-78.80 20.80-87.60L20.80-87.60L20.80-87.60Q38-106 66.40-106L66.40-106L66.40-106Q76.60-106 84-102.60L84-102.60L118.20-106L103.40-28L103.40-28Q102.80-25.60 102.80-21.20L102.80-21.20L102.80-21.20Q102.80-16.80 105.50-14L105.50-14L105.50-14Q108.20-11.20 112.20-10.80L112.20-10.80L112.20-10.80Q110.20-4 102.90 0L102.90 0L102.90 0Q95.60 4 87.40 4L87.40 4L87.40 4Q79.20 4 73.70 0.90L73.70 0.90L73.70 0.90Q68.20-2.20 66.60-7.40L66.60-7.40L66.60-7.40Q63.40-2.40 56.60 0.80L56.60 0.80L56.60 0.80Q49.80 4 40.70 4L40.70 4L40.70 4Q31.60 4 24.20 1.60L24.20 1.60L24.20 1.60Q16.80-0.80 12.10-6ZM54.30-87.20L54.30-87.20L54.30-87.20Q52-83.60 50-77.50L50-77.50L50-77.50Q48-71.40 44.70-55.10L44.70-55.10L44.70-55.10Q41.40-38.80 41.40-27.20L41.40-27.20L41.40-27.20Q41.40-15.60 43.20-12.20L43.20-12.20L43.20-12.20Q45-8.80 48.20-8.80L48.20-8.80L48.20-8.80Q54.60-8.80 59.30-14.90L59.30-14.90L59.30-14.90Q64-21 65.80-31.80L65.80-31.80L76.40-90.40L76.40-90.40Q72.20-94 67.30-94L67.30-94L67.30-94Q62.40-94 59.50-92.40L59.50-92.40L59.50-92.40Q56.60-90.80 54.30-87.20ZM180.60-94.80L180.60-94.80L180.60-94.80Q191.40-106 214.20-106L214.20-106L214.20-106Q226.80-106 233.70-99.30L233.70-99.30L233.70-99.30Q240.60-92.60 240.60-80.30L240.60-80.30L240.60-80.30Q240.60-68 233.70-59.30L233.70-59.30L233.70-59.30Q226.80-50.60 214-47L214-47L214-47Q215-43 216.40-38.80L216.40-38.80L219.20-30.80L219.20-30.80Q223-20.60 226-17L226-17L226-17Q229-13.40 233-12.20L233-12.20L233-12.20Q230.80-4 222.80 0.40L222.80 0.40L222.80 0.40Q216.40 4 207.60 4L207.60 4L207.60 4Q181.80 4 178.40-35.80L178.40-35.80L178.40-35.80Q177.80-41.40 177.80-47L177.80-47L177.80-47Q187.80-49.80 194.80-59.20L194.80-59.20L194.80-59.20Q201.80-68.60 201.80-79.60L201.80-79.60L201.80-79.60Q201.80-90.60 194-90.60L194-90.60L194-90.60Q188.40-90.60 184-84.40L184-84.40L184-84.40Q179.60-78.20 177.60-67.60L177.60-67.60L164.40 0L124.00 4L152-140L192.20-144L187.60-120.20L187.60-120.20Q184.60-103.40 180.60-94.80ZM301.40-94.80L301.40-94.80L301.40-94.80Q312.20-106 335.00-106L335.00-106L335.00-106Q347.60-106 354.50-99.30L354.50-99.30L354.50-99.30Q361.40-92.60 361.40-80.30L361.40-80.30L361.40-80.30Q361.40-68 354.50-59.30L354.50-59.30L354.50-59.30Q347.60-50.60 334.80-47L334.80-47L334.80-47Q335.80-43 337.20-38.80L337.20-38.80L340.00-30.80L340.00-30.80Q343.80-20.60 346.80-17L346.80-17L346.80-17Q349.80-13.40 353.80-12.20L353.80-12.20L353.80-12.20Q351.60-4 343.60 0.40L343.60 0.40L343.60 0.40Q337.20 4 328.40 4L328.40 4L328.40 4Q302.60 4 299.20-35.80L299.20-35.80L299.20-35.80Q298.60-41.40 298.60-47L298.60-47L298.60-47Q308.60-49.80 315.60-59.20L315.60-59.20L315.60-59.20Q322.60-68.60 322.60-79.60L322.60-79.60L322.60-79.60Q322.60-90.60 314.80-90.60L314.80-90.60L314.80-90.60Q309.20-90.60 304.80-84.40L304.80-84.40L304.80-84.40Q300.40-78.20 298.40-67.60L298.40-67.60L285.20 0L244.80 4L272.80-140L313.00-144L308.40-120.20L308.40-120.20Q305.40-103.40 301.40-94.80ZM379.30-6L379.30-6L379.30-6Q374.60-11.20 372.50-19.40L372.50-19.40L372.50-19.40Q370.40-27.60 370.40-41L370.40-41L370.40-41Q370.40-54.40 375.00-66.60L375.00-66.60L375.00-66.60Q379.60-78.80 388.00-87.60L388.00-87.60L388.00-87.60Q405.20-106 433.60-106L433.60-106L433.60-106Q443.80-106 451.20-102.60L451.20-102.60L485.40-106L470.60-28L470.60-28Q470.00-25.60 470.00-21.20L470.00-21.20L470.00-21.20Q470.00-16.80 472.70-14L472.70-14L472.70-14Q475.40-11.20 479.40-10.80L479.40-10.80L479.40-10.80Q477.40-4 470.10 0L470.10 0L470.10 0Q462.80 4 454.60 4L454.60 4L454.60 4Q446.40 4 440.90 0.90L440.90 0.90L440.90 0.90Q435.40-2.20 433.80-7.40L433.80-7.40L433.80-7.40Q430.60-2.40 423.80 0.80L423.80 0.80L423.80 0.80Q417.00 4 407.90 4L407.90 4L407.90 4Q398.80 4 391.40 1.60L391.40 1.60L391.40 1.60Q384.00-0.80 379.30-6ZM421.50-87.20L421.50-87.20L421.50-87.20Q419.20-83.60 417.20-77.50L417.20-77.50L417.20-77.50Q415.20-71.40 411.90-55.10L411.90-55.10L411.90-55.10Q408.60-38.80 408.60-27.20L408.60-27.20L408.60-27.20Q408.60-15.60 410.40-12.20L410.40-12.20L410.40-12.20Q412.20-8.80 415.40-8.80L415.40-8.80L415.40-8.80Q421.80-8.80 426.50-14.90L426.50-14.90L426.50-14.90Q431.20-21 433.00-31.80L433.00-31.80L443.60-90.40L443.60-90.40Q439.40-94 434.50-94L434.50-94L434.50-94Q429.60-94 426.70-92.40L426.70-92.40L426.70-92.40Q423.80-90.80 421.50-87.20Z" fill="#444"></path></g></g><style>text {
  font-size: 64px;
  font-family: Arial Black;
  dominant-baseline: central;
  text-anchor: middle;
}</style></svg>